<?xml version="1.0" encoding="UTF-8" standalone="no"?>
<svg
   xmlns:dc="http://purl.org/dc/elements/1.1/"
   xmlns:cc="http://creativecommons.org/ns#"
   xmlns:rdf="http://www.w3.org/1999/02/22-rdf-syntax-ns#"
   xmlns:svg="http://www.w3.org/2000/svg"
   xmlns="http://www.w3.org/2000/svg"
   xmlns:sodipodi="http://sodipodi.sourceforge.net/DTD/sodipodi-0.dtd"
   xmlns:inkscape="http://www.inkscape.org/namespaces/inkscape"
   inkscape:version="1.0 (4035a4fb49, 2020-05-01)"
   sodipodi:docname="iconbranca.svg"
   id="svg7962"
   version="1.1"
   viewBox="0 0 156.20781 78.140505"
   height="78.140503mm"
   width="156.20781mm">
  <defs
     id="defs7956">
    <clipPath
       id="clipPath5068"
       clipPathUnits="userSpaceOnUse">
      <path
         id="path5066"
         clip-rule="evenodd"
         d="m 660.32001,94.879997 h 26.71997 v 0.480004 h -26.71997 z" />
    </clipPath>
    <clipPath
       id="clipPath5074"
       clipPathUnits="userSpaceOnUse">
      <path
         id="path5072"
         clip-rule="evenodd"
         d="m 660.32001,94.879997 h 26.88 v 0.64 h -26.88 z" />
    </clipPath>
    <clipPath
       id="clipPath5086"
       clipPathUnits="userSpaceOnUse">
      <path
         id="path5084"
         clip-rule="evenodd"
         d="m 630.88,95.360001 h 28 V 108 h -28 z" />
    </clipPath>
    <clipPath
       id="clipPath5092"
       clipPathUnits="userSpaceOnUse">
      <path
         id="path5090"
         clip-rule="evenodd"
         d="m 630.88,95.360001 h 28.15998 V 108.16 H 630.88 Z" />
    </clipPath>
    <clipPath
       id="clipPath5104"
       clipPathUnits="userSpaceOnUse">
      <path
         id="path5102"
         clip-rule="evenodd"
         d="m 660.32001,95.360001 h 26.71997 V 108 h -26.71997 z" />
    </clipPath>
    <clipPath
       id="clipPath5110"
       clipPathUnits="userSpaceOnUse">
      <path
         id="path5108"
         clip-rule="evenodd"
         d="m 660.32001,95.360001 h 26.88 V 108.16 h -26.88 z" />
    </clipPath>
    <clipPath
       id="clipPath5122"
       clipPathUnits="userSpaceOnUse">
      <path
         id="path5120"
         clip-rule="evenodd"
         d="m 688.47998,95.360001 h 20 V 108 h -20 z" />
    </clipPath>
    <clipPath
       id="clipPath5128"
       clipPathUnits="userSpaceOnUse">
      <path
         id="path5126"
         clip-rule="evenodd"
         d="m 688.47998,95.360001 h 20.16003 V 108.16 h -20.16003 z" />
    </clipPath>
    <clipPath
       id="clipPath5140"
       clipPathUnits="userSpaceOnUse">
      <path
         id="path5138"
         clip-rule="evenodd"
         d="m 630.88,108 h 28 v 16.48 h -28 z" />
    </clipPath>
    <clipPath
       id="clipPath5146"
       clipPathUnits="userSpaceOnUse">
      <path
         id="path5144"
         clip-rule="evenodd"
         d="m 630.88,108 h 28.15998 v 16.64 H 630.88 Z" />
    </clipPath>
    <clipPath
       id="clipPath5158"
       clipPathUnits="userSpaceOnUse">
      <path
         id="path5156"
         clip-rule="evenodd"
         d="m 660.32001,108 h 26.71997 v 16.48 h -26.71997 z" />
    </clipPath>
    <clipPath
       id="clipPath5164"
       clipPathUnits="userSpaceOnUse">
      <path
         id="path5162"
         clip-rule="evenodd"
         d="m 660.32001,108 h 26.88 v 16.64 h -26.88 z" />
    </clipPath>
    <clipPath
       id="clipPath5176"
       clipPathUnits="userSpaceOnUse">
      <path
         id="path5174"
         clip-rule="evenodd"
         d="m 688.47998,108 h 28 v 16.48 h -28 z" />
    </clipPath>
    <clipPath
       id="clipPath5182"
       clipPathUnits="userSpaceOnUse">
      <path
         id="path5180"
         clip-rule="evenodd"
         d="m 688.47998,108 h 28.16003 v 16.64 h -28.16003 z" />
    </clipPath>
    <clipPath
       id="clipPath5194"
       clipPathUnits="userSpaceOnUse">
      <path
         id="path5192"
         clip-rule="evenodd"
         d="m 638.88,124.48 h 20 v 12.63999 h -20 z" />
    </clipPath>
    <clipPath
       id="clipPath5200"
       clipPathUnits="userSpaceOnUse">
      <path
         id="path5198"
         clip-rule="evenodd"
         d="m 638.88,124.48 h 20.15998 v 12.8 H 638.88 Z" />
    </clipPath>
    <clipPath
       id="clipPath5212"
       clipPathUnits="userSpaceOnUse">
      <path
         id="path5210"
         clip-rule="evenodd"
         d="m 660.32001,124.48 h 26.71997 v 12.63999 h -26.71997 z" />
    </clipPath>
    <clipPath
       id="clipPath5218"
       clipPathUnits="userSpaceOnUse">
      <path
         id="path5216"
         clip-rule="evenodd"
         d="m 660.32001,124.48 h 26.88 v 12.8 h -26.88 z" />
    </clipPath>
    <clipPath
       id="clipPath5230"
       clipPathUnits="userSpaceOnUse">
      <path
         id="path5228"
         clip-rule="evenodd"
         d="m 688.47998,124.48 h 28 v 12.63999 h -28 z" />
    </clipPath>
    <clipPath
       id="clipPath5236"
       clipPathUnits="userSpaceOnUse">
      <path
         id="path5234"
         clip-rule="evenodd"
         d="m 688.47998,124.48 h 28.16003 v 12.8 h -28.16003 z" />
    </clipPath>
    <clipPath
       id="clipPath5248"
       clipPathUnits="userSpaceOnUse">
      <path
         id="path5246"
         clip-rule="evenodd"
         d="m 660.32001,137.11999 h 26.71997 v 0.64 h -26.71997 z" />
    </clipPath>
    <clipPath
       id="clipPath5254"
       clipPathUnits="userSpaceOnUse">
      <path
         id="path5252"
         clip-rule="evenodd"
         d="m 660.32001,137.11999 h 26.88 v 0.64 h -26.88 z" />
    </clipPath>
    <clipPath
       id="clipPath5266"
       clipPathUnits="userSpaceOnUse">
      <path
         id="path5264"
         clip-rule="evenodd"
         d="M 592.47998,984.15997 H 715.84003 V 1107.52 H 592.47998 Z" />
    </clipPath>
    <clipPath
       id="clipPath5272"
       clipPathUnits="userSpaceOnUse">
      <path
         id="path5270"
         clip-rule="evenodd"
         d="M 592.47998,984.15997 H 716 V 1107.6801 H 592.47998 Z" />
    </clipPath>
  </defs>
  <sodipodi:namedview
     inkscape:window-maximized="1"
     inkscape:window-y="-8"
     inkscape:window-x="-8"
     inkscape:window-height="705"
     inkscape:window-width="1366"
     showgrid="false"
     inkscape:document-rotation="0"
     inkscape:current-layer="layer1"
     inkscape:document-units="mm"
     inkscape:cy="814.71784"
     inkscape:cx="-1573.5895"
     inkscape:zoom="0.175"
     inkscape:pageshadow="2"
     inkscape:pageopacity="0.0"
     borderopacity="1.0"
     bordercolor="#666666"
     pagecolor="#ffffff"
     id="base" />
  <metadata
     id="metadata7959">
    <rdf:RDF>
      <cc:Work
         rdf:about="">
        <dc:format>image/svg+xml</dc:format>
        <dc:type
           rdf:resource="http://purl.org/dc/dcmitype/StillImage" />
        <dc:title></dc:title>
      </cc:Work>
    </rdf:RDF>
  </metadata>
  <g
     transform="translate(-433.37861,11.787075)"
     id="layer1"
     inkscape:groupmode="layer"
     inkscape:label="Layer 1">
    <g
       style="fill:#ffffff"
       transform="matrix(2.3400478,0,0,2.3400478,-316.12469,-166.96065)"
       id="g8848">
      <g
         id="g4980"
         transform="matrix(0.78166422,0,0,0.78166422,320.57541,82.445718)"
         style="fill:#ffffff;fill-opacity:1">
        <path
           d="m 0,0 c -0.48,0.32 -0.48,0.96 0,1.28 l 5.92,6.08 c 0,0 0.16,0 0.16,0 0,0 0,0 0,0 L 7.36,8.8 c 0,0 -0.48,-1.12 0.16,-1.76 v 0 C 8.16,6.4 8.8,5.76 8.8,5.76 l 18.400001,-18.4 c 0.319999,-0.32 0.319999,-0.96 0,-1.28 l -6.08,-6.08 C 20.799999,-20.32 20.32,-20.32 19.84,-20 Z"
           style="fill:#ffffff;fill-opacity:1;fill-rule:nonzero;stroke:none"
           id="path4982" />
      </g>
      <g
         id="g4984"
         transform="matrix(0.78166422,0,0,0.78166422,327.45404,87.573416)"
         style="fill:#ffffff;fill-opacity:1">
        <path
           d="m 0,0 c -0.16,0.16 -0.16,0.16 -0.16,0.16 -0.8,0.8 -0.8,1.28 -0.96,1.76 0,0.64 0.64,1.12 0.64,1.12 l 0.8,0.96 0.8,0.64 9.92,10.08 c 0.48,0.32 0.96,0.32 1.28,0 L 18.4,8.64 c 0.319999,-0.32 0.319999,-0.96 0,-1.28 L 7.68,-3.36 c 0,0 -0.8,-0.8 -1.6,-0.8 -0.8,0 -2.56,1.28 -2.56,1.28 0,0 -2.72,2.08 -3.52,2.88 z"
           style="fill:#ffffff;fill-opacity:1;fill-rule:nonzero;stroke:none"
           id="path4986" />
      </g>
      <g
         id="g4988"
         transform="matrix(0.78166422,0,0,0.78166422,386.86052,83.446228)"
         style="fill:#ffffff;fill-opacity:1">
        <path
           d="m 0,0 c 0.32,-0.32 0.32,-0.96 0,-1.28 l -5.92,-6.08 c 0,0 -0.16,0 -0.16,0 0,0 0,0 0,0 L -7.36,-8.8 c 0,0 0.32,1.12 -0.16,1.76 v 0 C -8.16,-6.4 -8.8,-5.76 -8.8,-5.6 l -18.400001,18.24 c -0.319999,0.32 -0.319999,0.96 0,1.28 l 6.08,6.08 c 0.320002,0.32 0.800001,0.32 1.280001,0 z"
           style="fill:#ffffff;fill-opacity:1;fill-rule:nonzero;stroke:none"
           id="path4990" />
      </g>
      <g
         id="g4992"
         transform="matrix(0.78166422,0,0,0.78166422,379.98188,78.318531)"
         style="fill:#ffffff;fill-opacity:1">
        <path
           d="m 0,0 c 0.16,-0.16 0.16,-0.16 0.16,-0.16 0.8,-0.8 0.8,-1.28 0.96,-1.76 0,-0.64 -0.64,-1.12 -0.64,-1.12 l -0.8,-0.96 -0.8,-0.64 -9.92,-10.08 c -0.48,-0.32 -0.96,-0.32 -1.28,0 l -6.08,6.08 c -0.319999,0.32 -0.319999,0.96 0,1.28 L -7.68,3.36 c 0,0 0.8,0.8 1.6,0.8 0.8,0 2.56,-1.28 2.56,-1.28 0,0 2.72,-2.08 3.52,-2.88 z"
           style="fill:#ffffff;fill-opacity:1;fill-rule:nonzero;stroke:none"
           id="path4994" />
      </g>
      <g
         id="g4996"
         transform="matrix(0.78166422,0,0,0.78166422,356.9697,66.312139)"
         style="fill:#ffffff;fill-opacity:1">
        <path
           d="m 0,0 h 8.48 c 0.64,0 0.8,0.32 0.64,0.64 L -7.2,41.919998 c -0.16,0.320004 -0.64,0.800003 -1.12,0.800003 h -8.639999 c -0.480002,0 -0.640001,-0.479999 -0.480002,-0.800003 L -1.12,0.64 C -0.96,0.32 -0.48,0 0,0 Z"
           style="fill:#ffffff;fill-opacity:1;fill-rule:nonzero;stroke:none"
           id="path4998" />
      </g>
    </g>
  </g>
</svg>
