<?xml version="1.0" encoding="UTF-8" standalone="no"?>
<svg
   xmlns:dc="http://purl.org/dc/elements/1.1/"
   xmlns:cc="http://creativecommons.org/ns#"
   xmlns:rdf="http://www.w3.org/1999/02/22-rdf-syntax-ns#"
   xmlns:svg="http://www.w3.org/2000/svg"
   xmlns="http://www.w3.org/2000/svg"
   xmlns:xlink="http://www.w3.org/1999/xlink"
   xmlns:sodipodi="http://sodipodi.sourceforge.net/DTD/sodipodi-0.dtd"
   xmlns:inkscape="http://www.inkscape.org/namespaces/inkscape"
   width="354.70514mm"
   height="136.38013mm"
   viewBox="0 0 354.70514 136.38013"
   version="1.1"
   id="svg7962"
   inkscape:version="1.0 (4035a4fb49, 2020-05-01)"
   sodipodi:docname="logod.svg">
  <defs
     id="defs7956">
    <linearGradient
       id="linearGradient1842"
       inkscape:collect="always">
      <stop
         id="stop1838"
         offset="0"
         style="stop-color:#451f7e;stop-opacity:1" />
      <stop
         id="stop1840"
         offset="1"
         style="stop-color:#133274;stop-opacity:1" />
    </linearGradient>
    <linearGradient
       id="linearGradient1836"
       inkscape:collect="always">
      <stop
         id="stop1832"
         offset="0"
         style="stop-color:#451f7e;stop-opacity:1" />
      <stop
         id="stop1834"
         offset="1"
         style="stop-color:#133274;stop-opacity:1" />
    </linearGradient>
    <linearGradient
       id="linearGradient1830"
       inkscape:collect="always">
      <stop
         id="stop1826"
         offset="0"
         style="stop-color:#451f7e;stop-opacity:1" />
      <stop
         id="stop1828"
         offset="1"
         style="stop-color:#133274;stop-opacity:1" />
    </linearGradient>
    <linearGradient
       id="linearGradient1824"
       inkscape:collect="always">
      <stop
         id="stop1820"
         offset="0"
         style="stop-color:#451f7e;stop-opacity:1" />
      <stop
         id="stop1822"
         offset="1"
         style="stop-color:#133274;stop-opacity:1" />
    </linearGradient>
    <linearGradient
       id="linearGradient1818"
       inkscape:collect="always">
      <stop
         id="stop1814"
         offset="0"
         style="stop-color:#451f7e;stop-opacity:1" />
      <stop
         id="stop1816"
         offset="1"
         style="stop-color:#133274;stop-opacity:1" />
    </linearGradient>
    <linearGradient
       inkscape:collect="always"
       id="linearGradient8794">
      <stop
         style="stop-color:#23a1b1;stop-opacity:1;"
         offset="0"
         id="stop8790" />
      <stop
         style="stop-color:#3389b3;stop-opacity:1"
         offset="1"
         id="stop8792" />
    </linearGradient>
    <linearGradient
       inkscape:collect="always"
       id="linearGradient8788">
      <stop
         style="stop-color:#23a1b1;stop-opacity:1;"
         offset="0"
         id="stop8784" />
      <stop
         style="stop-color:#3487b3;stop-opacity:1"
         offset="1"
         id="stop8786" />
    </linearGradient>
    <linearGradient
       inkscape:collect="always"
       id="linearGradient8772">
      <stop
         style="stop-color:#23a1b1;stop-opacity:1"
         offset="0"
         id="stop8768" />
      <stop
         style="stop-color:#3784b2;stop-opacity:1"
         offset="1"
         id="stop8770" />
    </linearGradient>
    <linearGradient
       inkscape:collect="always"
       id="linearGradient8764">
      <stop
         style="stop-color:#23a1b1;stop-opacity:1"
         offset="0"
         id="stop8760" />
      <stop
         style="stop-color:#3386ba;stop-opacity:1"
         offset="1"
         id="stop8762" />
    </linearGradient>
    <linearGradient
       inkscape:collect="always"
       id="linearGradient8748">
      <stop
         style="stop-color:#451f7e;stop-opacity:1"
         offset="0"
         id="stop8744" />
      <stop
         style="stop-color:#133274;stop-opacity:1"
         offset="1"
         id="stop8746" />
    </linearGradient>
    <clipPath
       clipPathUnits="userSpaceOnUse"
       id="clipPath5068">
      <path
         d="m 660.32001,94.879997 h 26.71997 v 0.480004 h -26.71997 z"
         clip-rule="evenodd"
         id="path5066" />
    </clipPath>
    <clipPath
       clipPathUnits="userSpaceOnUse"
       id="clipPath5074">
      <path
         d="m 660.32001,94.879997 h 26.88 v 0.64 h -26.88 z"
         clip-rule="evenodd"
         id="path5072" />
    </clipPath>
    <clipPath
       clipPathUnits="userSpaceOnUse"
       id="clipPath5086">
      <path
         d="m 630.88,95.360001 h 28 V 108 h -28 z"
         clip-rule="evenodd"
         id="path5084" />
    </clipPath>
    <clipPath
       clipPathUnits="userSpaceOnUse"
       id="clipPath5092">
      <path
         d="m 630.88,95.360001 h 28.15998 V 108.16 H 630.88 Z"
         clip-rule="evenodd"
         id="path5090" />
    </clipPath>
    <clipPath
       clipPathUnits="userSpaceOnUse"
       id="clipPath5104">
      <path
         d="m 660.32001,95.360001 h 26.71997 V 108 h -26.71997 z"
         clip-rule="evenodd"
         id="path5102" />
    </clipPath>
    <clipPath
       clipPathUnits="userSpaceOnUse"
       id="clipPath5110">
      <path
         d="m 660.32001,95.360001 h 26.88 V 108.16 h -26.88 z"
         clip-rule="evenodd"
         id="path5108" />
    </clipPath>
    <clipPath
       clipPathUnits="userSpaceOnUse"
       id="clipPath5122">
      <path
         d="m 688.47998,95.360001 h 20 V 108 h -20 z"
         clip-rule="evenodd"
         id="path5120" />
    </clipPath>
    <clipPath
       clipPathUnits="userSpaceOnUse"
       id="clipPath5128">
      <path
         d="m 688.47998,95.360001 h 20.16003 V 108.16 h -20.16003 z"
         clip-rule="evenodd"
         id="path5126" />
    </clipPath>
    <clipPath
       clipPathUnits="userSpaceOnUse"
       id="clipPath5140">
      <path
         d="m 630.88,108 h 28 v 16.48 h -28 z"
         clip-rule="evenodd"
         id="path5138" />
    </clipPath>
    <clipPath
       clipPathUnits="userSpaceOnUse"
       id="clipPath5146">
      <path
         d="m 630.88,108 h 28.15998 v 16.64 H 630.88 Z"
         clip-rule="evenodd"
         id="path5144" />
    </clipPath>
    <clipPath
       clipPathUnits="userSpaceOnUse"
       id="clipPath5158">
      <path
         d="m 660.32001,108 h 26.71997 v 16.48 h -26.71997 z"
         clip-rule="evenodd"
         id="path5156" />
    </clipPath>
    <clipPath
       clipPathUnits="userSpaceOnUse"
       id="clipPath5164">
      <path
         d="m 660.32001,108 h 26.88 v 16.64 h -26.88 z"
         clip-rule="evenodd"
         id="path5162" />
    </clipPath>
    <clipPath
       clipPathUnits="userSpaceOnUse"
       id="clipPath5176">
      <path
         d="m 688.47998,108 h 28 v 16.48 h -28 z"
         clip-rule="evenodd"
         id="path5174" />
    </clipPath>
    <clipPath
       clipPathUnits="userSpaceOnUse"
       id="clipPath5182">
      <path
         d="m 688.47998,108 h 28.16003 v 16.64 h -28.16003 z"
         clip-rule="evenodd"
         id="path5180" />
    </clipPath>
    <clipPath
       clipPathUnits="userSpaceOnUse"
       id="clipPath5194">
      <path
         d="m 638.88,124.48 h 20 v 12.63999 h -20 z"
         clip-rule="evenodd"
         id="path5192" />
    </clipPath>
    <clipPath
       clipPathUnits="userSpaceOnUse"
       id="clipPath5200">
      <path
         d="m 638.88,124.48 h 20.15998 v 12.8 H 638.88 Z"
         clip-rule="evenodd"
         id="path5198" />
    </clipPath>
    <clipPath
       clipPathUnits="userSpaceOnUse"
       id="clipPath5212">
      <path
         d="m 660.32001,124.48 h 26.71997 v 12.63999 h -26.71997 z"
         clip-rule="evenodd"
         id="path5210" />
    </clipPath>
    <clipPath
       clipPathUnits="userSpaceOnUse"
       id="clipPath5218">
      <path
         d="m 660.32001,124.48 h 26.88 v 12.8 h -26.88 z"
         clip-rule="evenodd"
         id="path5216" />
    </clipPath>
    <clipPath
       clipPathUnits="userSpaceOnUse"
       id="clipPath5230">
      <path
         d="m 688.47998,124.48 h 28 v 12.63999 h -28 z"
         clip-rule="evenodd"
         id="path5228" />
    </clipPath>
    <clipPath
       clipPathUnits="userSpaceOnUse"
       id="clipPath5236">
      <path
         d="m 688.47998,124.48 h 28.16003 v 12.8 h -28.16003 z"
         clip-rule="evenodd"
         id="path5234" />
    </clipPath>
    <clipPath
       clipPathUnits="userSpaceOnUse"
       id="clipPath5248">
      <path
         d="m 660.32001,137.11999 h 26.71997 v 0.64 h -26.71997 z"
         clip-rule="evenodd"
         id="path5246" />
    </clipPath>
    <clipPath
       clipPathUnits="userSpaceOnUse"
       id="clipPath5254">
      <path
         d="m 660.32001,137.11999 h 26.88 v 0.64 h -26.88 z"
         clip-rule="evenodd"
         id="path5252" />
    </clipPath>
    <clipPath
       clipPathUnits="userSpaceOnUse"
       id="clipPath5266">
      <path
         d="M 592.47998,984.15997 H 715.84003 V 1107.52 H 592.47998 Z"
         clip-rule="evenodd"
         id="path5264" />
    </clipPath>
    <clipPath
       clipPathUnits="userSpaceOnUse"
       id="clipPath5272">
      <path
         d="M 592.47998,984.15997 H 716 V 1107.6801 H 592.47998 Z"
         clip-rule="evenodd"
         id="path5270" />
    </clipPath>
    <linearGradient
       inkscape:collect="always"
       xlink:href="#linearGradient1836"
       id="linearGradient8750"
       x1="-2.7062414"
       y1="4.2203603"
       x2="-2.8969097"
       y2="-14.965466"
       gradientUnits="userSpaceOnUse" />
    <linearGradient
       inkscape:collect="always"
       xlink:href="#linearGradient8764"
       id="linearGradient8766"
       x1="-3.8682148"
       y1="20.395889"
       x2="-3.8682148"
       y2="-8.8985338"
       gradientUnits="userSpaceOnUse" />
    <linearGradient
       inkscape:collect="always"
       xlink:href="#linearGradient8772"
       id="linearGradient8774"
       x1="-7.1999998"
       y1="41.919998"
       x2="-1.12"
       y2="0.63999999"
       gradientUnits="userSpaceOnUse" />
    <linearGradient
       inkscape:collect="always"
       xlink:href="#linearGradient8788"
       id="linearGradient8782"
       x1="9.1199875"
       y1="10.559975"
       x2="7.6957006"
       y2="-20.245466"
       gradientUnits="userSpaceOnUse" />
    <linearGradient
       inkscape:collect="always"
       xlink:href="#linearGradient8794"
       id="linearGradient8796"
       x1="11.04"
       y1="14.72"
       x2="11.270082"
       y2="-4.0770087"
       gradientUnits="userSpaceOnUse" />
    <linearGradient
       inkscape:collect="always"
       xlink:href="#linearGradient1818"
       id="linearGradient8798"
       gradientUnits="userSpaceOnUse"
       x1="9.1199875"
       y1="10.559975"
       x2="7.6957006"
       y2="-20.245466" />
    <linearGradient
       inkscape:collect="always"
       xlink:href="#linearGradient1824"
       id="linearGradient8800"
       gradientUnits="userSpaceOnUse"
       x1="11.04"
       y1="14.72"
       x2="11.270082"
       y2="-4.0770087" />
    <linearGradient
       inkscape:collect="always"
       xlink:href="#linearGradient1842"
       id="linearGradient8802"
       gradientUnits="userSpaceOnUse"
       x1="-3.8682148"
       y1="20.395889"
       x2="-3.8682148"
       y2="-8.8985338" />
    <linearGradient
       inkscape:collect="always"
       xlink:href="#linearGradient8748"
       id="linearGradient8804"
       gradientUnits="userSpaceOnUse"
       x1="-2.7062414"
       y1="4.2203603"
       x2="-2.8969097"
       y2="-14.965466" />
    <linearGradient
       inkscape:collect="always"
       xlink:href="#linearGradient1830"
       id="linearGradient8806"
       gradientUnits="userSpaceOnUse"
       x1="-7.1999998"
       y1="41.919998"
       x2="-1.12"
       y2="0.63999999" />
  </defs>
  <sodipodi:namedview
     showguides="false"
     id="base"
     pagecolor="#ffffff"
     bordercolor="#666666"
     borderopacity="1.0"
     inkscape:pageopacity="0.0"
     inkscape:pageshadow="2"
     inkscape:zoom="0.49497475"
     inkscape:cx="508.03733"
     inkscape:cy="229.43284"
     inkscape:document-units="mm"
     inkscape:current-layer="g8848"
     inkscape:document-rotation="0"
     showgrid="false"
     inkscape:window-width="1366"
     inkscape:window-height="705"
     inkscape:window-x="-8"
     inkscape:window-y="-8"
     inkscape:window-maximized="1" />
  <metadata
     id="metadata7959">
    <rdf:RDF>
      <cc:Work
         rdf:about="">
        <dc:format>image/svg+xml</dc:format>
        <dc:type
           rdf:resource="http://purl.org/dc/dcmitype/StillImage" />
        <dc:title></dc:title>
      </cc:Work>
    </rdf:RDF>
  </metadata>
  <g
     inkscape:label="Layer 1"
     inkscape:groupmode="layer"
     id="layer1"
     transform="translate(-235.90553,11.787075)">
    <g
       id="g8848"
       transform="matrix(2.3400478,0,0,2.3400478,-316.12469,-166.96065)">
      <g
         style="fill:url(#linearGradient8782);fill-opacity:1"
         transform="matrix(0.78166422,0,0,0.78166422,320.57541,82.445718)"
         id="g4980">
        <path
           id="path4982"
           style="fill:url(#linearGradient8798);fill-opacity:1;fill-rule:nonzero;stroke:none"
           d="m 0,0 c -0.48,0.32 -0.48,0.96 0,1.28 l 5.92,6.08 c 0,0 0.16,0 0.16,0 0,0 0,0 0,0 L 7.36,8.8 c 0,0 -0.48,-1.12 0.16,-1.76 v 0 C 8.16,6.4 8.8,5.76 8.8,5.76 l 18.400001,-18.4 c 0.319999,-0.32 0.319999,-0.96 0,-1.28 l -6.08,-6.08 C 20.799999,-20.32 20.32,-20.32 19.84,-20 Z" />
      </g>
      <g
         style="fill:url(#linearGradient8796);fill-opacity:1"
         transform="matrix(0.78166422,0,0,0.78166422,327.45404,87.573416)"
         id="g4984">
        <path
           id="path4986"
           style="fill:url(#linearGradient8800);fill-opacity:1;fill-rule:nonzero;stroke:none"
           d="m 0,0 c -0.16,0.16 -0.16,0.16 -0.16,0.16 -0.8,0.8 -0.8,1.28 -0.96,1.76 0,0.64 0.64,1.12 0.64,1.12 l 0.8,0.96 0.8,0.64 9.92,10.08 c 0.48,0.32 0.96,0.32 1.28,0 L 18.4,8.64 c 0.319999,-0.32 0.319999,-0.96 0,-1.28 L 7.68,-3.36 c 0,0 -0.8,-0.8 -1.6,-0.8 -0.8,0 -2.56,1.28 -2.56,1.28 0,0 -2.72,2.08 -3.52,2.88 z" />
      </g>
      <g
         style="fill:url(#linearGradient8766);fill-opacity:1"
         transform="matrix(0.78166422,0,0,0.78166422,386.86052,83.446228)"
         id="g4988">
        <path
           id="path4990"
           style="fill:url(#linearGradient8802);fill-opacity:1;fill-rule:nonzero;stroke:none"
           d="m 0,0 c 0.32,-0.32 0.32,-0.96 0,-1.28 l -5.92,-6.08 c 0,0 -0.16,0 -0.16,0 0,0 0,0 0,0 L -7.36,-8.8 c 0,0 0.32,1.12 -0.16,1.76 v 0 C -8.16,-6.4 -8.8,-5.76 -8.8,-5.6 l -18.400001,18.24 c -0.319999,0.32 -0.319999,0.96 0,1.28 l 6.08,6.08 c 0.320002,0.32 0.800001,0.32 1.280001,0 z" />
      </g>
      <g
         style="fill:url(#linearGradient8750);fill-opacity:1"
         transform="matrix(0.78166422,0,0,0.78166422,379.98188,78.318531)"
         id="g4992">
        <path
           id="path4994"
           style="fill:url(#linearGradient8804);fill-opacity:1;fill-rule:nonzero;stroke:none"
           d="m 0,0 c 0.16,-0.16 0.16,-0.16 0.16,-0.16 0.8,-0.8 0.8,-1.28 0.96,-1.76 0,-0.64 -0.64,-1.12 -0.64,-1.12 l -0.8,-0.96 -0.8,-0.64 -9.92,-10.08 c -0.48,-0.32 -0.96,-0.32 -1.28,0 l -6.08,6.08 c -0.319999,0.32 -0.319999,0.96 0,1.28 L -7.68,3.36 c 0,0 0.8,0.8 1.6,0.8 0.8,0 2.56,-1.28 2.56,-1.28 0,0 2.72,-2.08 3.52,-2.88 z" />
      </g>
      <g
         style="fill:url(#linearGradient8774);fill-opacity:1"
         transform="matrix(0.78166422,0,0,0.78166422,356.9697,66.312139)"
         id="g4996">
        <path
           id="path4998"
           style="fill:url(#linearGradient8806);fill-opacity:1;fill-rule:nonzero;stroke:none"
           d="m 0,0 h 8.48 c 0.64,0 0.8,0.32 0.64,0.64 L -7.2,41.919998 c -0.16,0.320004 -0.64,0.800003 -1.12,0.800003 h -8.639999 c -0.480002,0 -0.640001,-0.479999 -0.480002,-0.800003 L -1.12,0.64 C -0.96,0.32 -0.48,0 0,0 Z" />
      </g>
      <g
         style="fill:#133274;fill-opacity:1"
         transform="matrix(0.78166422,0,0,0.78166422,235.90553,119.34026)"
         id="g5000">
        <path
           id="path5002"
           style="fill:#133274;fill-opacity:1;fill-rule:nonzero;stroke:none"
           d="m 0,0 v -20.16 h 10.56 c 0,0.16 0,0.32 0,0.64 0,0.159999 0,0.479999 0,0.640001 0,0.16 0,0.479999 0,0.639999 0,0.16 0,0.48 0,0.64 H 2.88 v 5.92 h 6.4 c 0,0.16 0,0.32 0,0.64 0.16,0.16 0.16,0.32 0.16,0.64 0,0.16 0,0.32 -0.16,0.64 0,0.16 0,0.32 0,0.48 H 2.88 V 0 C 2.56,0 2.4,0 2.08,0.16 c -0.16,0 -0.48,0 -0.64,0 -0.32,0 -0.48,0 -0.8,0 C 0.48,0 0.16,0 0,0 Z" />
      </g>
      <g
         style="fill:#133274;fill-opacity:1"
         transform="matrix(0.78166422,0,0,0.78166422,245.66067,113.96242)"
         id="g5004">
        <path
           id="path5006"
           style="fill:#133274;fill-opacity:1;fill-rule:nonzero;stroke:none"
           d="M 0,0 C 0,-1.12 0.16,-2.08 0.48,-3.04 0.8,-4 1.12,-4.8 1.76,-5.44 c 0.48,-0.64 1.28,-1.28 2.08,-1.6 0.8,-0.48 1.92,-0.64 3.04,-0.64 0.96,0 1.76,0.16 2.56,0.48 0.8,0.32 1.44,0.8 1.92,1.44 0.48,0.64 0.96,1.28 1.12,2.08 0.32,0.8 0.48,1.76 0.48,2.72 0,0.16 0,0.48 -0.16,0.8 0,0.32 0,0.48 0,0.64 H 5.12 L 3.2,-1.44 h 6.88 c 0,-0.64 0,-1.12 -0.16,-1.6 C 9.76,-3.52 9.6,-3.84 9.28,-4.32 8.96,-4.64 8.64,-4.96 8.32,-5.12 7.84,-5.28 7.36,-5.44 6.72,-5.44 c -1.12,0 -1.92,0.32 -2.56,0.96 -0.48,0.64 -0.8,1.44 -0.96,2.56 -0.16,0.64 -0.16,1.28 -0.16,1.76 0,0.64 0,1.12 0,1.76 0.32,1.12 0.64,1.92 1.28,2.4 0.64,0.8 1.76,1.12 3.36,1.12 1.28,0 2.56,-0.32 3.84,-0.8 0.16,0.32 0.16,0.64 0.32,1.12 C 12,5.76 12,6.24 12,6.56 11.36,6.88 10.72,7.04 9.92,7.2 9.28,7.36 8.48,7.36 7.52,7.36 6.24,7.36 5.12,7.2 4.16,6.88 3.2,6.56 2.4,5.92 1.76,5.28 1.28,4.64 0.8,3.84 0.48,2.88 0.16,2.08 0,1.12 0,0 Z" />
      </g>
      <g
         style="fill:#133274;fill-opacity:1"
         transform="matrix(0.78166422,0,0,0.78166422,258.41746,116.46373)"
         id="g5008">
        <path
           id="path5010"
           style="fill:#133274;fill-opacity:1;fill-rule:nonzero;stroke:none"
           d="m 0,0 v -16.799999 c 0.32,-0.16 0.48,-0.16 0.8,-0.16 0.16,0 0.48,0 0.64,0 0.16,0 0.48,0 0.64,0 0.32,0 0.48,0 0.64,0.16 V -0.64 c 0,0.48 0.16,0.96 0.16,1.28 0.16,0.16 0.32,0.48 0.48,0.64 0.16,0.16 0.32,0.32 0.48,0.32 0.32,0 0.48,0 0.64,0 0.16,0 0.48,0 0.64,0 0.16,0 0.48,0 0.48,0 0.16,0.64 0.32,1.28 0.32,2.08 -0.32,0 -0.64,0.16 -0.96,0.16 -0.32,0 -0.64,0 -0.96,0 -0.64,0 -1.12,0 -1.6,-0.16 C 1.92,3.52 1.6,3.36 1.12,3.04 0.8,2.72 0.48,2.4 0.32,1.92 0.16,1.28 0,0.64 0,0 Z" />
      </g>
      <g
         style="fill:#133274;fill-opacity:1"
         transform="matrix(0.78166422,0,0,0.78166422,264.1705,108.95975)"
         id="g5012">
        <path
           id="path5014"
           style="fill:#133274;fill-opacity:1;fill-rule:nonzero;stroke:none"
           d="M 0,0 C 0,-0.16 0,-0.32 0,-0.64 0,-0.8 0,-0.96 0.16,-1.12 h 4.48 v 14.4 c -0.16,0 -0.48,0 -0.64,0.16 -0.32,0 -0.48,0 -0.8,0 -0.16,0 -0.32,0 -0.64,0 C 2.4,13.28 2.08,13.28 1.92,13.28 V 1.12 H 0.16 C 0,0.96 0,0.8 0,0.64 0,0.32 0,0.16 0,0 Z m 1.28,-5.6 c 0,-0.32 0,-0.48 0,-0.8 0,-0.32 0,-0.48 0,-0.64 0.32,-0.16 0.48,-0.16 0.8,-0.16 0.32,0 0.48,0 0.8,0 0.16,0 0.48,0 0.64,0 0.32,0 0.64,0 0.8,0.16 0,0.16 0,0.32 0,0.64 0,0.32 0,0.48 0,0.8 0,0.16 0,0.32 0,0.64 0,0.16 0,0.48 0,0.64 -0.32,0.16 -0.48,0.16 -0.8,0.16 -0.16,0 -0.48,0 -0.64,0 -0.32,0 -0.48,0 -0.8,0 -0.32,0 -0.48,0 -0.8,-0.16 0,-0.16 0,-0.48 0,-0.64 0,-0.32 0,-0.48 0,-0.64 z" />
      </g>
      <g
         style="fill:#133274;fill-opacity:1"
         transform="matrix(0.78166422,0,0,0.78166422,271.29925,124.46799)"
         id="g5016">
        <path
           id="path5018"
           style="fill:#133274;fill-opacity:1;fill-rule:nonzero;stroke:none"
           d="m 0,0 v -20.959999 c 0.16,0 0.32,-0.160002 0.64,-0.160002 0.16,0 0.32,0 0.48,0 0.32,0 0.48,0 0.64,0 0.16,0 0.48,0.160002 0.64,0.160002 0,0 0,0.16 0,0.32 C 2.4,-20.48 2.56,-20.16 2.56,-20 c 0,0.16 0,0.48 0,0.639999 0,0.16 0,0.32 0,0.32 0.32,-0.16 0.48,-0.479999 0.8,-0.799999 0.16,-0.32 0.48,-0.48 0.96,-0.799999 0.32,-0.16 0.64,-0.32 1.12,-0.480002 0.48,-0.16 0.96,-0.16 1.6,-0.16 0.8,0 1.6,0.16 2.4,0.320002 0.64,0.32 1.28,0.799999 1.76,1.439999 0.48,0.479999 0.96,1.28 1.28,2.239999 C 12.64,-16.48 12.8,-15.36 12.8,-14.08 c 0,2.4 -0.64,4.32 -1.92,5.76 -1.28,1.44 -3.2,2.08 -5.76,2.08 -0.32,0 -0.8,0 -1.28,-0.16 -0.32,0 -0.64,0 -0.96,-0.16 l 2.4,-2.08 v 0 c 0.8,0 1.28,0 1.92,-0.32 0.64,-0.16 1.12,-0.48 1.44,-0.96 0.48,-0.48 0.8,-0.96 0.96,-1.76 0.16,-0.64 0.32,-1.44 0.32,-2.4 0,-1.44 -0.32,-2.559999 -0.8,-3.52 -0.48,-0.8 -1.44,-1.279999 -2.72,-1.279999 -0.48,0 -0.96,0 -1.28,0.16 -0.48,0.16 -0.96,0.479999 -1.28,0.799999 -0.32,0.32 -0.48,0.799999 -0.8,1.280001 C 2.88,-16.16 2.72,-15.52 2.72,-14.72 V 0 C 2.56,0 2.24,0.16 2.08,0.16 c -0.32,0 -0.48,0 -0.64,0 -0.32,0 -0.48,0 -0.8,0 C 0.48,0.16 0.16,0 0,0 Z" />
      </g>
      <g
         style="fill:#133274;fill-opacity:1"
         transform="matrix(0.78166422,0,0,0.78166422,283.68084,113.96242)"
         id="g5020">
        <path
           id="path5022"
           style="fill:#133274;fill-opacity:1;fill-rule:nonzero;stroke:none"
           d="M 0,0 C 0,-1.12 0,-2.08 0.32,-3.04 0.64,-4 0.96,-4.8 1.6,-5.44 c 0.48,-0.64 1.28,-1.28 2.08,-1.6 0.8,-0.48 1.92,-0.64 3.04,-0.64 0.96,0 1.92,0.16 2.56,0.48 0.8,0.32 1.44,0.8 1.92,1.44 0.48,0.64 0.96,1.28 1.12,2.08 0.32,0.8 0.48,1.76 0.48,2.72 0,0.16 0,0.48 0,0.8 -0.16,0.32 -0.16,0.48 -0.16,0.64 H 4.96 L 3.04,-1.44 h 7.04 c 0,-0.64 -0.16,-1.12 -0.32,-1.6 C 9.6,-3.52 9.44,-3.84 9.12,-4.32 8.96,-4.64 8.48,-4.96 8.16,-5.12 7.68,-5.28 7.2,-5.44 6.56,-5.44 c -1.12,0 -1.92,0.32 -2.56,0.96 -0.48,0.64 -0.8,1.44 -0.96,2.56 -0.16,0.64 -0.16,1.28 -0.16,1.76 0,0.64 0,1.12 0.16,1.76 0.16,1.12 0.48,1.92 1.12,2.4 0.8,0.8 1.92,1.12 3.36,1.12 1.28,0 2.56,-0.32 3.84,-0.8 0.16,0.32 0.32,0.64 0.32,1.12 0.16,0.32 0.16,0.8 0.16,1.12 C 11.2,6.88 10.56,7.04 9.76,7.2 9.12,7.36 8.32,7.36 7.36,7.36 6.08,7.36 4.96,7.2 4,6.88 3.04,6.56 2.24,5.92 1.76,5.28 1.12,4.64 0.64,3.84 0.32,2.88 0,2.08 0,1.12 0,0 Z" />
      </g>
      <g
         style="fill:#451f7e;fill-opacity:1"
         transform="matrix(0.78166422,0,0,0.78166422,295.06186,104.58245)"
         id="g5024">
        <path
           id="path5026"
           style="fill:#451f7e;fill-opacity:1;fill-rule:nonzero;stroke:none"
           d="m 0,0 c 0,-0.16 0.16,-0.48 0.16,-0.64 0,-0.16 0,-0.48 0,-0.64 H 13.6 c 0,0.16 0,0.32 0,0.64 0,0.16 0,0.32 0,0.64 0,0.16 0,0.32 0,0.64 0,0.16 0,0.48 0,0.64 H 8.32 v 17.599999 c -0.48,0 -0.96,0.160002 -1.44,0.160002 -0.48,0 -0.96,-0.160002 -1.44,-0.160002 L 5.44,1.28 H 0.16 c 0,-0.16 0,-0.48 0,-0.64 C 0.16,0.32 0,0.16 0,0 Z" />
      </g>
      <g
         style="fill:#451f7e;fill-opacity:1"
         transform="matrix(0.78166422,0,0,0.78166422,306.19277,119.34026)"
         id="g5028">
        <path
           id="path5030"
           style="fill:#451f7e;fill-opacity:1;fill-rule:nonzero;stroke:none"
           d="m 0,0 v -14.4 c 0.16,0 0.32,0 0.48,0 0.16,0 0.48,0 0.64,0 0.16,0 0.48,0 0.64,0 0.16,0 0.32,0 0.48,0 0.16,0.32 0.16,0.48 0.16,0.8 0,0 0,0 0,0.16 0.16,0 0.16,0 0.16,0.16 0.16,0 0.16,0.16 0.32,0.16 0,0 0.16,0 0.32,0 0,0 0.16,0 0.32,-0.16 0.16,-0.16 0.32,-0.32 0.64,-0.48 0.64,-0.48 1.44,-0.64 2.4,-0.64 0.16,0 0.32,0 0.48,0 0.16,0 0.32,0 0.48,0 0,0.16 0,0.32 0,0.48 0,0.32 0,0.48 0,0.64 0,0.32 0,0.48 0,0.8 0,0.16 0,0.48 -0.16,0.64 0,0 -0.16,0 -0.32,0 H 6.56 c -0.48,0 -0.96,0 -1.44,0.16 -0.48,0.16 -0.8,0.32 -1.28,0.8 -0.32,0.32 -0.64,0.8 -0.8,1.44 -0.16,0.64 -0.32,1.28 -0.32,2.4 L 2.72,0 C 2.56,0.16 2.24,0.16 2.08,0.16 c -0.32,0 -0.48,0 -0.8,0 -0.16,0 -0.32,0 -0.64,0 C 0.48,0.16 0.16,0.16 0,0 Z" />
      </g>
      <g
         style="fill:#451f7e;fill-opacity:1"
         transform="matrix(0.78166422,0,0,0.78166422,313.69677,116.08853)"
         id="g5032">
        <path
           id="path5034"
           style="fill:#451f7e;fill-opacity:1;fill-rule:nonzero;stroke:none"
           d="m 0,0 c 0,-0.8 0.16,-1.6 0.48,-2.24 0.32,-0.48 0.8,-1.12 1.44,-1.44 0.48,-0.48 1.12,-0.64 1.92,-0.96 0.64,-0.16 1.44,-0.32 2.24,-0.32 0.64,0 1.12,0.16 1.44,0.16 0.48,0 0.8,0 0.96,0 V -5.28 C 8.48,-6.4 8.32,-7.2 7.68,-7.52 7.2,-8 6.4,-8.16 5.28,-8.16 4.64,-8.16 4,-8.16 3.36,-8 2.88,-8 2.24,-7.84 1.76,-7.68 1.44,-8.32 1.28,-8.96 1.28,-9.92 c 0.64,-0.16 1.28,-0.32 2.08,-0.48 0.64,0 1.44,-0.16 2.24,-0.16 1.76,0 3.2,0.48 4.16,1.28 0.96,0.96 1.44,2.24 1.44,4.16 V 3.84 C 10.56,4 9.76,4.16 8.96,4.32 8,4.48 7.04,4.48 6.08,4.64 5.12,4.64 4.32,4.48 3.52,4.32 2.72,4.16 2.24,3.84 1.6,3.52 1.12,3.2 0.8,2.72 0.48,2.08 0.16,1.44 0,0.8 0,0 Z m 2.88,-0.16 c 0,0.64 0,1.12 0.16,1.44 0.32,0.32 0.48,0.48 0.8,0.64 0.32,0.16 0.64,0.32 1.12,0.32 0.32,0 0.64,0.16 0.96,0.16 0.48,0 0.96,-0.16 1.44,-0.16 0.48,0 0.8,-0.16 1.12,-0.16 V -4.64 L 6.4,-2.72 c -1.12,0 -2.08,0.16 -2.72,0.64 -0.64,0.48 -0.8,1.12 -0.8,1.92 z" />
      </g>
      <g
         style="fill:#451f7e;fill-opacity:1"
         transform="matrix(0.78166422,0,0,0.78166422,324.07723,108.08429)"
         id="g5036">
        <path
           id="path5038"
           style="fill:#451f7e;fill-opacity:1;fill-rule:nonzero;stroke:none"
           d="M 0,0 C 0.16,0 0.48,0 0.8,0 0.96,0 1.28,-0.16 1.44,-0.16 1.76,-0.16 2.08,0 2.24,0 2.56,0 2.88,0 3.04,0 L 6.88,11.84 10.88,0 c 0.32,0 0.48,0 0.8,0 0.16,0 0.48,-0.16 0.64,-0.16 0.32,0 0.48,0.16 0.8,0.16 0.16,0 0.48,0 0.8,0 l -5.6,14.4 c -0.32,0 -0.64,0 -0.8,0.16 -0.32,0 -0.48,0 -0.64,0 -0.32,0 -0.48,0 -0.64,0 C 5.92,14.4 5.76,14.4 5.44,14.4 Z" />
      </g>
      <g
         style="fill:#451f7e;fill-opacity:1"
         transform="matrix(0.78166422,0,0,0.78166422,336.45882,116.08853)"
         id="g5040">
        <path
           id="path5042"
           style="fill:#451f7e;fill-opacity:1;fill-rule:nonzero;stroke:none"
           d="m 0,0 c 0,-0.8 0.16,-1.6 0.48,-2.24 0.32,-0.48 0.8,-1.12 1.28,-1.44 0.64,-0.48 1.28,-0.64 1.92,-0.96 0.8,-0.16 1.6,-0.32 2.4,-0.32 0.64,0 1.12,0.16 1.44,0.16 0.32,0 0.64,0 0.96,0 V -5.28 C 8.48,-6.4 8.16,-7.2 7.68,-7.52 7.04,-8 6.24,-8.16 5.28,-8.16 4.48,-8.16 4,-8.16 3.36,-8 2.88,-8 2.24,-7.84 1.76,-7.68 1.28,-8.32 1.12,-8.96 1.12,-9.92 c 0.64,-0.16 1.44,-0.32 2.08,-0.48 0.8,0 1.6,-0.16 2.24,-0.16 1.92,0 3.36,0.48 4.32,1.28 0.96,0.96 1.44,2.24 1.44,4.16 V 3.84 C 10.56,4 9.76,4.16 8.8,4.32 8,4.48 7.04,4.48 5.92,4.64 5.12,4.64 4.32,4.48 3.52,4.32 2.72,4.16 2.08,3.84 1.6,3.52 1.12,3.2 0.64,2.72 0.48,2.08 0.16,1.44 0,0.8 0,0 Z m 2.72,-0.16 c 0,0.64 0.16,1.12 0.32,1.44 0.16,0.32 0.48,0.48 0.8,0.64 0.32,0.16 0.64,0.32 0.96,0.32 0.48,0 0.8,0.16 1.12,0.16 0.48,0 0.96,-0.16 1.44,-0.16 0.32,0 0.8,-0.16 1.12,-0.16 V -4.64 L 6.4,-2.72 c -1.28,0 -2.08,0.16 -2.72,0.64 -0.64,0.48 -0.96,1.12 -0.96,1.92 z" />
      </g>
      <g
         style="fill:#451f7e;fill-opacity:1"
         transform="matrix(0.78166422,0,0,0.78166422,347.58973,119.09012)"
         id="g5044">
        <path
           id="path5046"
           style="fill:#451f7e;fill-opacity:1;fill-rule:nonzero;stroke:none"
           d="m 0,0 c 0.16,-0.32 0.16,-0.8 0.32,-1.12 0.16,-0.48 0.16,-0.8 0.32,-1.12 0.64,0.16 1.12,0.32 1.76,0.48 0.64,0.16 1.12,0.16 1.76,0.16 0.48,0 0.8,0 1.28,-0.16 0.32,-0.16 0.64,-0.16 0.96,-0.48 0.32,-0.16 0.64,-0.32 0.8,-0.64 0.16,-0.32 0.16,-0.48 0.16,-0.96 0,-0.32 0,-0.64 -0.16,-0.8 C 7.04,-4.96 6.88,-5.12 6.56,-5.28 6.4,-5.44 6.08,-5.6 5.76,-5.76 5.44,-5.92 5.12,-5.92 4.8,-6.08 L 3.84,-6.4 C 2.72,-6.88 1.76,-7.36 1.28,-8 c -0.64,-0.48 -0.8,-1.28 -0.8,-2.24 0,-1.28 0.48,-2.24 1.28,-3.04 0.96,-0.8 2.24,-1.12 4,-1.12 0.8,0 1.44,0.16 2.24,0.16 0.64,0.16 1.28,0.32 1.76,0.48 0,0.48 -0.16,0.8 -0.16,1.12 -0.16,0.48 -0.32,0.8 -0.48,1.12 -0.32,-0.16 -0.8,-0.32 -1.44,-0.48 -0.48,-0.16 -1.12,-0.16 -1.76,-0.16 -0.8,0 -1.44,0.16 -1.92,0.32 -0.48,0.32 -0.8,0.64 -0.8,1.28 0,0.32 0.16,0.64 0.16,0.8 0.16,0.32 0.32,0.48 0.64,0.64 0.16,0.16 0.48,0.32 0.8,0.32 0.16,0.16 0.48,0.32 0.8,0.48 L 6.88,-8 c 0.48,0.16 0.96,0.32 1.28,0.64 0.48,0.16 0.8,0.32 1.12,0.64 0.16,0.32 0.48,0.8 0.64,1.12 0.16,0.48 0.32,0.96 0.32,1.6 0,0.8 -0.16,1.44 -0.48,1.92 C 9.44,-1.44 9.12,-0.96 8.64,-0.64 8,-0.16 7.52,0.16 6.72,0.32 5.92,0.48 5.12,0.64 4.32,0.64 3.36,0.64 2.56,0.64 1.92,0.48 1.28,0.32 0.64,0.16 0,0 Z" />
      </g>
      <g
         style="fill:#451f7e;fill-opacity:1"
         transform="matrix(0.78166422,0,0,0.78166422,356.9697,119.09012)"
         id="g5048">
        <path
           id="path5050"
           style="fill:#451f7e;fill-opacity:1;fill-rule:nonzero;stroke:none"
           d="m 0,0 c 0.16,-0.32 0.16,-0.8 0.32,-1.12 0.16,-0.48 0.32,-0.8 0.32,-1.12 0.64,0.16 1.12,0.32 1.76,0.48 0.64,0.16 1.28,0.16 1.76,0.16 0.48,0 0.8,0 1.28,-0.16 0.32,-0.16 0.8,-0.16 0.96,-0.48 0.32,-0.16 0.64,-0.32 0.8,-0.64 0.16,-0.32 0.16,-0.48 0.16,-0.96 0,-0.32 0,-0.64 -0.16,-0.8 C 7.04,-4.96 6.88,-5.12 6.72,-5.28 6.4,-5.44 6.08,-5.6 5.76,-5.76 5.6,-5.92 5.12,-5.92 4.8,-6.08 L 3.84,-6.4 C 2.72,-6.88 1.76,-7.36 1.28,-8 c -0.64,-0.48 -0.8,-1.28 -0.8,-2.24 0,-1.28 0.48,-2.24 1.28,-3.04 0.96,-0.8 2.24,-1.12 4,-1.12 0.8,0 1.44,0.16 2.24,0.16 0.64,0.16 1.28,0.32 1.76,0.48 0,0.48 -0.16,0.8 -0.16,1.12 -0.16,0.48 -0.32,0.8 -0.48,1.12 -0.32,-0.16 -0.8,-0.32 -1.44,-0.48 -0.48,-0.16 -1.12,-0.16 -1.76,-0.16 -0.8,0 -1.28,0.16 -1.92,0.32 -0.48,0.32 -0.8,0.64 -0.8,1.28 0,0.32 0.16,0.64 0.32,0.8 0,0.32 0.16,0.48 0.48,0.64 0.16,0.16 0.48,0.32 0.8,0.32 0.16,0.16 0.48,0.32 0.96,0.48 L 6.88,-8 c 0.48,0.16 0.96,0.32 1.28,0.64 0.48,0.16 0.8,0.32 1.12,0.64 0.32,0.32 0.48,0.8 0.64,1.12 0.16,0.48 0.32,0.96 0.32,1.6 0,0.8 -0.16,1.44 -0.48,1.92 C 9.44,-1.44 9.12,-0.96 8.64,-0.64 8,-0.16 7.52,0.16 6.72,0.32 5.92,0.48 5.12,0.64 4.32,0.64 3.36,0.64 2.56,0.64 1.92,0.48 1.28,0.32 0.64,0.16 0,0 Z" />
      </g>
      <g
         style="fill:#451f7e;fill-opacity:1"
         transform="matrix(0.78166422,0,0,0.78166422,366.97498,113.71228)"
         id="g5052">
        <path
           id="path5054"
           style="fill:#451f7e;fill-opacity:1;fill-rule:nonzero;stroke:none"
           d="m 0,0 c 0,-0.96 0.16,-2.08 0.48,-2.88 0.32,-0.96 0.64,-1.76 1.28,-2.4 0.48,-0.64 1.28,-1.28 2.08,-1.6 0.8,-0.48 1.76,-0.64 2.88,-0.64 1.12,0 2.08,0.16 3.04,0.64 0.8,0.32 1.44,0.96 2.08,1.6 0.48,0.64 0.96,1.44 1.12,2.4 0.32,0.8 0.48,1.92 0.48,2.88 0,1.12 -0.16,2.08 -0.48,3.04 C 12.8,4 12.32,4.64 11.84,5.44 11.2,6.08 10.56,6.56 9.76,7.04 8.8,7.36 7.84,7.52 6.72,7.52 5.6,7.52 4.64,7.36 3.84,7.04 3.04,6.56 2.24,6.08 1.76,5.44 1.12,4.64 0.8,3.84 0.48,3.04 0.16,2.08 0,1.12 0,0 Z m 3.04,0 c 0,1.76 0.32,3.04 0.8,4 0.64,0.8 1.6,1.28 2.88,1.28 C 8,5.28 8.96,4.8 9.6,4 10.24,3.04 10.56,1.76 10.56,0 10.56,-1.6 10.24,-2.88 9.6,-3.84 8.96,-4.8 8,-5.28 6.72,-5.28 5.44,-5.28 4.48,-4.8 3.84,-3.84 3.36,-2.88 3.04,-1.6 3.04,0 Z" />
      </g>
      <g
         style="fill:#451f7e;fill-opacity:1"
         transform="matrix(0.78166422,0,0,0.78166422,379.60665,119.09012)"
         id="g5056">
        <path
           id="path5058"
           style="fill:#451f7e;fill-opacity:1;fill-rule:nonzero;stroke:none"
           d="m 0,0 c 0,-0.32 0.16,-0.8 0.32,-1.12 0,-0.48 0.16,-0.8 0.32,-1.12 0.48,0.16 1.12,0.32 1.76,0.48 0.48,0.16 1.12,0.16 1.76,0.16 0.48,0 0.8,0 1.28,-0.16 0.32,-0.16 0.64,-0.16 0.96,-0.48 0.32,-0.16 0.48,-0.32 0.64,-0.64 0.16,-0.32 0.32,-0.48 0.32,-0.96 0,-0.32 0,-0.64 -0.16,-0.8 C 7.04,-4.96 6.88,-5.12 6.56,-5.28 6.4,-5.44 6.08,-5.6 5.76,-5.76 5.44,-5.92 5.12,-5.92 4.8,-6.08 L 3.84,-6.4 C 2.56,-6.88 1.76,-7.36 1.28,-8 0.64,-8.48 0.32,-9.28 0.32,-10.24 c 0,-1.28 0.48,-2.24 1.44,-3.04 0.96,-0.8 2.24,-1.12 4,-1.12 0.64,0 1.44,0.16 2.08,0.16 0.8,0.16 1.44,0.32 1.92,0.48 0,0.48 -0.16,0.8 -0.32,1.12 0,0.48 -0.16,0.8 -0.32,1.12 C 8.8,-11.68 8.16,-11.84 7.68,-12 7.04,-12.16 6.4,-12.16 5.76,-12.16 c -0.64,0 -1.28,0.16 -1.76,0.32 -0.48,0.32 -0.8,0.64 -0.8,1.28 0,0.32 0,0.64 0.16,0.8 0.16,0.32 0.32,0.48 0.48,0.64 0.32,0.16 0.64,0.32 0.8,0.32 0.32,0.16 0.64,0.32 0.96,0.48 L 6.88,-8 c 0.48,0.16 0.8,0.32 1.28,0.64 0.32,0.16 0.8,0.32 0.96,0.64 0.32,0.32 0.64,0.8 0.8,1.12 0.16,0.48 0.16,0.96 0.16,1.6 0,0.8 0,1.44 -0.32,1.92 C 9.44,-1.44 9.12,-0.96 8.48,-0.64 8,-0.16 7.36,0.16 6.72,0.32 5.92,0.48 5.12,0.64 4.32,0.64 3.36,0.64 2.56,0.64 1.92,0.48 1.28,0.32 0.64,0.16 0,0 Z" />
      </g>
    </g>
  </g>
</svg>
